<mxfile host="app.diagrams.net" modified="2023-09-28T02:54:24.546Z" agent="Mozilla/5.0 (Windows NT 10.0; Win64; x64) AppleWebKit/537.36 (KHTML, like Gecko) Chrome/117.0.0.0 Safari/537.36" version="21.8.2" etag="NWnhThXGaB4sSW5x6Vtj" type="device">
  <diagram id="SZSSfRRNzRUcV55icaM6" name="Page-1">
    <mxGraphModel dx="1005" dy="1081" grid="1" gridSize="10" guides="1" tooltips="1" connect="1" arrows="1" fold="1" page="1" pageScale="1" pageWidth="850" pageHeight="1100" math="0" shadow="0">
      <root>
        <mxCell id="0" />
        <mxCell id="1" parent="0" />
        <mxCell id="Ma9vZrQTeCv6cbDS7a-y-165" value=":Library" style="shape=umlLifeline;perimeter=lifelinePerimeter;whiteSpace=wrap;html=1;container=1;dropTarget=0;collapsible=0;recursiveResize=0;outlineConnect=0;portConstraint=eastwest;newEdgeStyle={&quot;curved&quot;:0,&quot;rounded&quot;:0};" vertex="1" parent="1">
          <mxGeometry x="320" y="3410" width="100" height="570" as="geometry" />
        </mxCell>
        <mxCell id="8" value="Q1: Library System Use Case Diagram" style="shape=umlFrame;whiteSpace=wrap;html=1;width=120;height=30;boundedLbl=1;verticalAlign=middle;align=left;spacingLeft=5;" parent="1" vertex="1">
          <mxGeometry y="30" width="790" height="960" as="geometry" />
        </mxCell>
        <mxCell id="36" style="edgeStyle=none;html=1;exitX=1;exitY=0.5;exitDx=0;exitDy=0;entryX=0.5;entryY=0;entryDx=0;entryDy=0;entryPerimeter=0;startArrow=block;startFill=1;endArrow=none;endFill=0;strokeWidth=2;" parent="1" source="4" target="9" edge="1">
          <mxGeometry relative="1" as="geometry">
            <Array as="points">
              <mxPoint x="720" y="360" />
            </Array>
          </mxGeometry>
        </mxCell>
        <mxCell id="4" value="Search for Book" style="ellipse;whiteSpace=wrap;html=1;" parent="1" vertex="1">
          <mxGeometry x="200" y="240" width="110" height="60" as="geometry" />
        </mxCell>
        <mxCell id="23" style="edgeStyle=none;html=1;entryX=0.25;entryY=0.1;entryDx=0;entryDy=0;entryPerimeter=0;strokeWidth=2;" parent="1" source="6" target="9" edge="1">
          <mxGeometry relative="1" as="geometry" />
        </mxCell>
        <mxCell id="38" value="" style="edgeStyle=none;html=1;startArrow=none;startFill=0;endArrow=classic;endFill=1;dashed=1;strokeWidth=2;" parent="1" source="6" target="37" edge="1">
          <mxGeometry relative="1" as="geometry" />
        </mxCell>
        <mxCell id="6" value="Check Book Availability" style="ellipse;whiteSpace=wrap;html=1;" parent="1" vertex="1">
          <mxGeometry x="170" y="470" width="140" height="70" as="geometry" />
        </mxCell>
        <mxCell id="54" style="edgeStyle=none;html=1;exitX=1;exitY=1;exitDx=0;exitDy=0;exitPerimeter=0;entryX=1;entryY=0.5;entryDx=0;entryDy=0;strokeWidth=2;startArrow=none;startFill=0;endArrow=open;endFill=0;endSize=8;" parent="1" source="9" target="53" edge="1">
          <mxGeometry relative="1" as="geometry">
            <Array as="points">
              <mxPoint x="630" y="760" />
            </Array>
          </mxGeometry>
        </mxCell>
        <mxCell id="61" style="edgeStyle=none;html=1;entryX=1;entryY=0.5;entryDx=0;entryDy=0;strokeWidth=2;startArrow=none;startFill=0;endArrow=open;endFill=0;endSize=8;exitX=1;exitY=1;exitDx=0;exitDy=0;exitPerimeter=0;" parent="1" source="9" target="56" edge="1">
          <mxGeometry relative="1" as="geometry">
            <Array as="points">
              <mxPoint x="670" y="810" />
            </Array>
          </mxGeometry>
        </mxCell>
        <mxCell id="62" style="edgeStyle=none;html=1;exitX=1;exitY=1;exitDx=0;exitDy=0;exitPerimeter=0;entryX=1;entryY=0.5;entryDx=0;entryDy=0;strokeWidth=2;startArrow=none;startFill=0;endArrow=open;endFill=0;endSize=8;" parent="1" source="9" target="59" edge="1">
          <mxGeometry relative="1" as="geometry">
            <Array as="points">
              <mxPoint x="730" y="840" />
            </Array>
          </mxGeometry>
        </mxCell>
        <mxCell id="9" value="Member" style="shape=umlActor;verticalLabelPosition=bottom;verticalAlign=top;html=1;fillColor=none;strokeColor=#007FFF;strokeWidth=3;labelBackgroundColor=default;" parent="1" vertex="1">
          <mxGeometry x="690" y="550" width="60" height="105" as="geometry" />
        </mxCell>
        <mxCell id="17" style="edgeStyle=none;html=1;strokeWidth=2;" parent="1" source="13" target="14" edge="1">
          <mxGeometry relative="1" as="geometry">
            <Array as="points">
              <mxPoint x="100" y="170" />
            </Array>
          </mxGeometry>
        </mxCell>
        <mxCell id="18" style="edgeStyle=none;html=1;strokeWidth=2;" parent="1" source="13" target="16" edge="1">
          <mxGeometry relative="1" as="geometry">
            <Array as="points">
              <mxPoint x="140" y="250" />
            </Array>
          </mxGeometry>
        </mxCell>
        <mxCell id="20" value="" style="edgeStyle=none;html=1;strokeWidth=2;" parent="1" source="13" target="19" edge="1">
          <mxGeometry relative="1" as="geometry" />
        </mxCell>
        <mxCell id="21" style="edgeStyle=none;html=1;strokeWidth=2;entryX=0;entryY=0.5;entryDx=0;entryDy=0;" parent="1" source="13" target="4" edge="1">
          <mxGeometry relative="1" as="geometry" />
        </mxCell>
        <mxCell id="22" style="edgeStyle=none;html=1;strokeWidth=2;" parent="1" source="13" target="6" edge="1">
          <mxGeometry relative="1" as="geometry" />
        </mxCell>
        <mxCell id="58" style="edgeStyle=none;html=1;exitX=0;exitY=1;exitDx=0;exitDy=0;exitPerimeter=0;entryX=0;entryY=0.5;entryDx=0;entryDy=0;strokeWidth=2;startArrow=none;startFill=0;endArrow=open;endFill=0;endSize=8;" parent="1" source="13" target="56" edge="1">
          <mxGeometry relative="1" as="geometry">
            <Array as="points">
              <mxPoint x="90" y="850" />
            </Array>
          </mxGeometry>
        </mxCell>
        <mxCell id="60" style="edgeStyle=none;html=1;exitX=0;exitY=1;exitDx=0;exitDy=0;exitPerimeter=0;entryX=0;entryY=0.5;entryDx=0;entryDy=0;strokeWidth=2;startArrow=none;startFill=0;endArrow=open;endFill=0;endSize=8;" parent="1" source="13" target="59" edge="1">
          <mxGeometry relative="1" as="geometry">
            <Array as="points">
              <mxPoint x="50" y="920" />
            </Array>
          </mxGeometry>
        </mxCell>
        <mxCell id="63" style="edgeStyle=none;html=1;exitX=1;exitY=0.3333333333333333;exitDx=0;exitDy=0;exitPerimeter=0;strokeWidth=2;startArrow=none;startFill=0;endArrow=open;endFill=0;endSize=8;" parent="1" source="13" target="44" edge="1">
          <mxGeometry relative="1" as="geometry" />
        </mxCell>
        <mxCell id="13" value="Library" style="shape=umlActor;verticalLabelPosition=bottom;verticalAlign=top;html=1;strokeColor=#007FFF;strokeWidth=3;" parent="1" vertex="1">
          <mxGeometry x="30" y="390" width="60" height="110" as="geometry" />
        </mxCell>
        <mxCell id="14" value="Add Book" style="ellipse;whiteSpace=wrap;html=1;" parent="1" vertex="1">
          <mxGeometry x="160" y="90" width="100" height="50" as="geometry" />
        </mxCell>
        <mxCell id="16" value="Delete Book" style="ellipse;whiteSpace=wrap;html=1;" parent="1" vertex="1">
          <mxGeometry x="190" y="160" width="100" height="50" as="geometry" />
        </mxCell>
        <mxCell id="19" value="Update Book Info" style="ellipse;whiteSpace=wrap;html=1;" parent="1" vertex="1">
          <mxGeometry x="210" y="310" width="120" height="60" as="geometry" />
        </mxCell>
        <mxCell id="42" value="" style="edgeStyle=none;html=1;startArrow=none;startFill=0;endArrow=open;endFill=0;dashed=1;exitX=0.313;exitY=0.963;exitDx=0;exitDy=0;exitPerimeter=0;strokeWidth=2;" parent="1" source="6" target="41" edge="1">
          <mxGeometry relative="1" as="geometry" />
        </mxCell>
        <mxCell id="51" style="edgeStyle=none;html=1;exitX=1;exitY=0.5;exitDx=0;exitDy=0;entryX=0;entryY=0.5;entryDx=0;entryDy=0;strokeWidth=2;startArrow=none;startFill=0;endArrow=open;endFill=0;endSize=8;dashed=1;" parent="1" source="37" target="45" edge="1">
          <mxGeometry relative="1" as="geometry" />
        </mxCell>
        <mxCell id="37" value="Check out book&amp;nbsp;&lt;br&gt;(if available)" style="ellipse;whiteSpace=wrap;html=1;fillColor=#FFFFFF;" parent="1" vertex="1">
          <mxGeometry x="285" y="550" width="140" height="70" as="geometry" />
        </mxCell>
        <mxCell id="43" style="edgeStyle=none;html=1;exitX=1;exitY=0;exitDx=0;exitDy=0;entryX=0;entryY=1;entryDx=0;entryDy=0;entryPerimeter=0;startArrow=none;startFill=0;endArrow=open;endFill=0;strokeWidth=2;" parent="1" source="41" target="9" edge="1">
          <mxGeometry relative="1" as="geometry">
            <Array as="points" />
          </mxGeometry>
        </mxCell>
        <mxCell id="41" value="Place hold on book&lt;br&gt;(if unavailable)" style="ellipse;whiteSpace=wrap;html=1;fillColor=#FFFFFF;" parent="1" vertex="1">
          <mxGeometry x="260" y="670" width="140" height="70" as="geometry" />
        </mxCell>
        <mxCell id="44" value="List Books" style="ellipse;whiteSpace=wrap;html=1;" parent="1" vertex="1">
          <mxGeometry x="210" y="390" width="110" height="50" as="geometry" />
        </mxCell>
        <mxCell id="52" style="edgeStyle=none;html=1;exitX=1;exitY=0.5;exitDx=0;exitDy=0;entryX=0;entryY=0.3333333333333333;entryDx=0;entryDy=0;entryPerimeter=0;strokeWidth=2;startArrow=none;startFill=0;endArrow=open;endFill=0;endSize=8;" parent="1" source="45" target="9" edge="1">
          <mxGeometry relative="1" as="geometry" />
        </mxCell>
        <mxCell id="45" value="Calculate Due Date" style="ellipse;whiteSpace=wrap;html=1;" parent="1" vertex="1">
          <mxGeometry x="470" y="580" width="140" height="70" as="geometry" />
        </mxCell>
        <mxCell id="55" style="edgeStyle=none;html=1;exitX=0;exitY=0;exitDx=0;exitDy=0;strokeWidth=2;startArrow=none;startFill=0;endArrow=open;endFill=0;endSize=8;" parent="1" source="53" target="13" edge="1">
          <mxGeometry relative="1" as="geometry" />
        </mxCell>
        <mxCell id="53" value="Return Book" style="ellipse;whiteSpace=wrap;html=1;strokeColor=#000000;strokeWidth=1;fillColor=#FFFFFF;" parent="1" vertex="1">
          <mxGeometry x="200" y="770" width="120" height="50" as="geometry" />
        </mxCell>
        <mxCell id="56" value="View Member Books Borrowed" style="ellipse;whiteSpace=wrap;html=1;strokeColor=#000000;strokeWidth=1;fillColor=#FFFFFF;" parent="1" vertex="1">
          <mxGeometry x="190" y="840" width="120" height="60" as="geometry" />
        </mxCell>
        <mxCell id="59" value="View Member Books Returned" style="ellipse;whiteSpace=wrap;html=1;strokeColor=#000000;strokeWidth=1;fillColor=#FFFFFF;" parent="1" vertex="1">
          <mxGeometry x="190" y="910" width="120" height="60" as="geometry" />
        </mxCell>
        <mxCell id="Ma9vZrQTeCv6cbDS7a-y-84" value="&lt;p style=&quot;margin:0px;margin-top:4px;text-align:center;&quot;&gt;&lt;b&gt;Library&lt;/b&gt;&lt;/p&gt;&lt;hr size=&quot;1&quot;&gt;&lt;p style=&quot;margin:0px;margin-left:4px;&quot;&gt;+ books: list(Book)&lt;/p&gt;&lt;p style=&quot;margin:0px;margin-left:4px;&quot;&gt;+ members: list(Member)&lt;/p&gt;&lt;p style=&quot;margin:0px;margin-left:4px;&quot;&gt;&lt;br&gt;&lt;/p&gt;&lt;hr size=&quot;1&quot;&gt;&lt;p style=&quot;margin:0px;margin-left:4px;&quot;&gt;&lt;span style=&quot;background-color: initial;&quot;&gt;+ CalculateDueDate()&lt;/span&gt;&lt;br&gt;&lt;/p&gt;&lt;p style=&quot;margin:0px;margin-left:4px;&quot;&gt;+ AddBook()&lt;/p&gt;&lt;p style=&quot;margin:0px;margin-left:4px;&quot;&gt;+ DeleteBook()&lt;/p&gt;&lt;p style=&quot;margin:0px;margin-left:4px;&quot;&gt;+ SearchForBook()&lt;/p&gt;&lt;p style=&quot;margin:0px;margin-left:4px;&quot;&gt;+ UpdateBookInfo()&lt;/p&gt;&lt;p style=&quot;margin:0px;margin-left:4px;&quot;&gt;+ ListBooks()&lt;br&gt;&lt;/p&gt;&lt;p style=&quot;margin:0px;margin-left:4px;&quot;&gt;+ CheckBookAvailability()&lt;/p&gt;&lt;p style=&quot;margin:0px;margin-left:4px;&quot;&gt;+ PlaceBookHold()&lt;/p&gt;&lt;p style=&quot;margin:0px;margin-left:4px;&quot;&gt;+ CheckOutBook()&lt;/p&gt;&lt;p style=&quot;margin:0px;margin-left:4px;&quot;&gt;+ ViewMemberBooksBorrowed()&lt;/p&gt;&lt;p style=&quot;margin:0px;margin-left:4px;&quot;&gt;+ ViewMemberBooksReturned()&lt;/p&gt;&lt;p style=&quot;margin:0px;margin-left:4px;&quot;&gt;+ ReturnBook()&lt;/p&gt;" style="verticalAlign=top;align=left;overflow=fill;fontSize=12;fontFamily=Helvetica;html=1;whiteSpace=wrap;" vertex="1" parent="1">
          <mxGeometry x="310" y="1190" width="220" height="290" as="geometry" />
        </mxCell>
        <mxCell id="Ma9vZrQTeCv6cbDS7a-y-85" value="Book" style="swimlane;fontStyle=1;align=center;verticalAlign=top;childLayout=stackLayout;horizontal=1;startSize=26;horizontalStack=0;resizeParent=1;resizeParentMax=0;resizeLast=0;collapsible=1;marginBottom=0;whiteSpace=wrap;html=1;" vertex="1" parent="1">
          <mxGeometry x="40" y="1520" width="160" height="300" as="geometry" />
        </mxCell>
        <mxCell id="Ma9vZrQTeCv6cbDS7a-y-86" value="+ ISBN: int" style="text;strokeColor=none;fillColor=none;align=left;verticalAlign=top;spacingLeft=4;spacingRight=4;overflow=hidden;rotatable=0;points=[[0,0.5],[1,0.5]];portConstraint=eastwest;whiteSpace=wrap;html=1;" vertex="1" parent="Ma9vZrQTeCv6cbDS7a-y-85">
          <mxGeometry y="26" width="160" height="26" as="geometry" />
        </mxCell>
        <mxCell id="Ma9vZrQTeCv6cbDS7a-y-87" value="+ Title: string" style="text;strokeColor=none;fillColor=none;align=left;verticalAlign=top;spacingLeft=4;spacingRight=4;overflow=hidden;rotatable=0;points=[[0,0.5],[1,0.5]];portConstraint=eastwest;whiteSpace=wrap;html=1;" vertex="1" parent="Ma9vZrQTeCv6cbDS7a-y-85">
          <mxGeometry y="52" width="160" height="26" as="geometry" />
        </mxCell>
        <mxCell id="Ma9vZrQTeCv6cbDS7a-y-88" value="+ Author: string" style="text;strokeColor=none;fillColor=none;align=left;verticalAlign=top;spacingLeft=4;spacingRight=4;overflow=hidden;rotatable=0;points=[[0,0.5],[1,0.5]];portConstraint=eastwest;whiteSpace=wrap;html=1;" vertex="1" parent="Ma9vZrQTeCv6cbDS7a-y-85">
          <mxGeometry y="78" width="160" height="26" as="geometry" />
        </mxCell>
        <mxCell id="Ma9vZrQTeCv6cbDS7a-y-89" value="+ PublicationYear: int" style="text;strokeColor=none;fillColor=none;align=left;verticalAlign=top;spacingLeft=4;spacingRight=4;overflow=hidden;rotatable=0;points=[[0,0.5],[1,0.5]];portConstraint=eastwest;whiteSpace=wrap;html=1;" vertex="1" parent="Ma9vZrQTeCv6cbDS7a-y-85">
          <mxGeometry y="104" width="160" height="26" as="geometry" />
        </mxCell>
        <mxCell id="Ma9vZrQTeCv6cbDS7a-y-90" value="+ DueDate: date" style="text;strokeColor=none;fillColor=none;align=left;verticalAlign=top;spacingLeft=4;spacingRight=4;overflow=hidden;rotatable=0;points=[[0,0.5],[1,0.5]];portConstraint=eastwest;whiteSpace=wrap;html=1;" vertex="1" parent="Ma9vZrQTeCv6cbDS7a-y-85">
          <mxGeometry y="130" width="160" height="26" as="geometry" />
        </mxCell>
        <mxCell id="Ma9vZrQTeCv6cbDS7a-y-91" value="" style="line;strokeWidth=1;fillColor=none;align=left;verticalAlign=middle;spacingTop=-1;spacingLeft=3;spacingRight=3;rotatable=0;labelPosition=right;points=[];portConstraint=eastwest;strokeColor=inherit;" vertex="1" parent="Ma9vZrQTeCv6cbDS7a-y-85">
          <mxGeometry y="156" width="160" height="8" as="geometry" />
        </mxCell>
        <mxCell id="Ma9vZrQTeCv6cbDS7a-y-92" value="+ IsAvailable()&lt;br&gt;+ OnHold()&lt;br&gt;+ CheckDueDate()&lt;br&gt;+ UpdateInfo()&lt;br&gt;" style="text;strokeColor=none;fillColor=none;align=left;verticalAlign=top;spacingLeft=4;spacingRight=4;overflow=hidden;rotatable=0;points=[[0,0.5],[1,0.5]];portConstraint=eastwest;whiteSpace=wrap;html=1;" vertex="1" parent="Ma9vZrQTeCv6cbDS7a-y-85">
          <mxGeometry y="164" width="160" height="136" as="geometry" />
        </mxCell>
        <mxCell id="Ma9vZrQTeCv6cbDS7a-y-93" value="Member" style="swimlane;fontStyle=1;align=center;verticalAlign=top;childLayout=stackLayout;horizontal=1;startSize=26;horizontalStack=0;resizeParent=1;resizeParentMax=0;resizeLast=0;collapsible=1;marginBottom=0;whiteSpace=wrap;html=1;" vertex="1" parent="1">
          <mxGeometry x="580" y="1550" width="220" height="210" as="geometry" />
        </mxCell>
        <mxCell id="Ma9vZrQTeCv6cbDS7a-y-94" value="+ MemberID: int" style="text;strokeColor=none;fillColor=none;align=left;verticalAlign=top;spacingLeft=4;spacingRight=4;overflow=hidden;rotatable=0;points=[[0,0.5],[1,0.5]];portConstraint=eastwest;whiteSpace=wrap;html=1;" vertex="1" parent="Ma9vZrQTeCv6cbDS7a-y-93">
          <mxGeometry y="26" width="220" height="26" as="geometry" />
        </mxCell>
        <mxCell id="Ma9vZrQTeCv6cbDS7a-y-95" value="+ MemberName: string" style="text;strokeColor=none;fillColor=none;align=left;verticalAlign=top;spacingLeft=4;spacingRight=4;overflow=hidden;rotatable=0;points=[[0,0.5],[1,0.5]];portConstraint=eastwest;whiteSpace=wrap;html=1;" vertex="1" parent="Ma9vZrQTeCv6cbDS7a-y-93">
          <mxGeometry y="52" width="220" height="26" as="geometry" />
        </mxCell>
        <mxCell id="Ma9vZrQTeCv6cbDS7a-y-96" value="" style="line;strokeWidth=1;fillColor=none;align=left;verticalAlign=middle;spacingTop=-1;spacingLeft=3;spacingRight=3;rotatable=0;labelPosition=right;points=[];portConstraint=eastwest;strokeColor=inherit;" vertex="1" parent="Ma9vZrQTeCv6cbDS7a-y-93">
          <mxGeometry y="78" width="220" height="8" as="geometry" />
        </mxCell>
        <mxCell id="Ma9vZrQTeCv6cbDS7a-y-97" value="+ CheckOutBook()&lt;br&gt;+ CheckBookAvailability()&lt;br&gt;+ ViewMemberBooksBorrowed()&lt;br&gt;+ ViewMemberBooksReturned()&lt;br&gt;+ ReturnBook()" style="text;strokeColor=none;fillColor=none;align=left;verticalAlign=top;spacingLeft=4;spacingRight=4;overflow=hidden;rotatable=0;points=[[0,0.5],[1,0.5]];portConstraint=eastwest;whiteSpace=wrap;html=1;" vertex="1" parent="Ma9vZrQTeCv6cbDS7a-y-93">
          <mxGeometry y="86" width="220" height="124" as="geometry" />
        </mxCell>
        <mxCell id="Ma9vZrQTeCv6cbDS7a-y-98" value="check out / return" style="html=1;verticalAlign=bottom;endArrow=open;dashed=1;endSize=8;curved=0;rounded=0;exitX=0;exitY=0.5;exitDx=0;exitDy=0;entryX=0.999;entryY=0.117;entryDx=0;entryDy=0;entryPerimeter=0;" edge="1" parent="1" source="Ma9vZrQTeCv6cbDS7a-y-97" target="Ma9vZrQTeCv6cbDS7a-y-92">
          <mxGeometry relative="1" as="geometry">
            <mxPoint x="510" y="1700" as="sourcePoint" />
            <mxPoint x="430" y="1700" as="targetPoint" />
          </mxGeometry>
        </mxCell>
        <mxCell id="Ma9vZrQTeCv6cbDS7a-y-99" value="" style="endArrow=open;html=1;endSize=12;startArrow=diamondThin;startSize=14;startFill=1;edgeStyle=orthogonalEdgeStyle;align=left;verticalAlign=bottom;rounded=0;exitX=0;exitY=0.5;exitDx=0;exitDy=0;entryX=0.5;entryY=0;entryDx=0;entryDy=0;" edge="1" parent="1" source="Ma9vZrQTeCv6cbDS7a-y-84" target="Ma9vZrQTeCv6cbDS7a-y-85">
          <mxGeometry x="-1" y="3" relative="1" as="geometry">
            <mxPoint x="120" y="1410" as="sourcePoint" />
            <mxPoint x="280" y="1410" as="targetPoint" />
          </mxGeometry>
        </mxCell>
        <mxCell id="Ma9vZrQTeCv6cbDS7a-y-100" value="1" style="text;html=1;strokeColor=none;fillColor=none;align=center;verticalAlign=middle;whiteSpace=wrap;rounded=0;" vertex="1" parent="1">
          <mxGeometry x="270" y="1300" width="60" height="30" as="geometry" />
        </mxCell>
        <mxCell id="Ma9vZrQTeCv6cbDS7a-y-101" value="1..*" style="text;html=1;strokeColor=none;fillColor=none;align=center;verticalAlign=middle;whiteSpace=wrap;rounded=0;" vertex="1" parent="1">
          <mxGeometry x="60" y="1490" width="60" height="30" as="geometry" />
        </mxCell>
        <mxCell id="Ma9vZrQTeCv6cbDS7a-y-102" value="1" style="endArrow=open;html=1;endSize=12;startArrow=diamondThin;startSize=14;startFill=1;edgeStyle=orthogonalEdgeStyle;align=left;verticalAlign=bottom;rounded=0;entryX=0.54;entryY=0.007;entryDx=0;entryDy=0;entryPerimeter=0;" edge="1" parent="1" source="Ma9vZrQTeCv6cbDS7a-y-84" target="Ma9vZrQTeCv6cbDS7a-y-93">
          <mxGeometry x="-1" y="3" relative="1" as="geometry">
            <mxPoint x="590" y="1350" as="sourcePoint" />
            <mxPoint x="750" y="1350" as="targetPoint" />
          </mxGeometry>
        </mxCell>
        <mxCell id="Ma9vZrQTeCv6cbDS7a-y-103" value="Q2: Identification of Classes &lt;br&gt;and Class Diagrams" style="shape=umlFrame;whiteSpace=wrap;html=1;pointerEvents=0;width=240;height=40;" vertex="1" parent="1">
          <mxGeometry y="1140" width="840" height="750" as="geometry" />
        </mxCell>
        <mxCell id="Ma9vZrQTeCv6cbDS7a-y-104" value="0..*" style="text;html=1;strokeColor=none;fillColor=none;align=center;verticalAlign=middle;whiteSpace=wrap;rounded=0;" vertex="1" parent="1">
          <mxGeometry x="630" y="1520" width="60" height="30" as="geometry" />
        </mxCell>
        <mxCell id="Ma9vZrQTeCv6cbDS7a-y-105" value="Q3: Activity Diagram - process of borrowing and returning a book" style="shape=umlFrame;whiteSpace=wrap;html=1;pointerEvents=0;width=190;height=50;" vertex="1" parent="1">
          <mxGeometry x="10" y="2230" width="830" height="540" as="geometry" />
        </mxCell>
        <mxCell id="Ma9vZrQTeCv6cbDS7a-y-109" style="edgeStyle=orthogonalEdgeStyle;rounded=0;orthogonalLoop=1;jettySize=auto;html=1;exitX=1;exitY=0.5;exitDx=0;exitDy=0;entryX=0;entryY=0.5;entryDx=0;entryDy=0;" edge="1" parent="1" source="Ma9vZrQTeCv6cbDS7a-y-107" target="Ma9vZrQTeCv6cbDS7a-y-108">
          <mxGeometry relative="1" as="geometry" />
        </mxCell>
        <mxCell id="Ma9vZrQTeCv6cbDS7a-y-107" value="" style="rhombus;" vertex="1" parent="1">
          <mxGeometry x="60" y="2350" width="30" height="30" as="geometry" />
        </mxCell>
        <mxCell id="Ma9vZrQTeCv6cbDS7a-y-113" style="edgeStyle=orthogonalEdgeStyle;rounded=0;orthogonalLoop=1;jettySize=auto;html=1;exitX=1;exitY=0.5;exitDx=0;exitDy=0;entryX=0;entryY=0.5;entryDx=0;entryDy=0;" edge="1" parent="1" source="Ma9vZrQTeCv6cbDS7a-y-108" target="Ma9vZrQTeCv6cbDS7a-y-112">
          <mxGeometry relative="1" as="geometry" />
        </mxCell>
        <mxCell id="Ma9vZrQTeCv6cbDS7a-y-108" value="Check Book Availability" style="html=1;align=center;verticalAlign=top;rounded=1;absoluteArcSize=1;arcSize=10;dashed=0;whiteSpace=wrap;" vertex="1" parent="1">
          <mxGeometry x="150" y="2345" width="140" height="40" as="geometry" />
        </mxCell>
        <mxCell id="Ma9vZrQTeCv6cbDS7a-y-116" style="edgeStyle=orthogonalEdgeStyle;rounded=0;orthogonalLoop=1;jettySize=auto;html=1;exitX=1;exitY=0.5;exitDx=0;exitDy=0;entryX=0.5;entryY=0;entryDx=0;entryDy=0;" edge="1" parent="1" source="Ma9vZrQTeCv6cbDS7a-y-112" target="Ma9vZrQTeCv6cbDS7a-y-115">
          <mxGeometry relative="1" as="geometry" />
        </mxCell>
        <mxCell id="Ma9vZrQTeCv6cbDS7a-y-121" style="edgeStyle=orthogonalEdgeStyle;rounded=0;orthogonalLoop=1;jettySize=auto;html=1;exitX=0.5;exitY=1;exitDx=0;exitDy=0;entryX=1;entryY=0.5;entryDx=0;entryDy=0;elbow=vertical;" edge="1" parent="1" source="Ma9vZrQTeCv6cbDS7a-y-112" target="Ma9vZrQTeCv6cbDS7a-y-117">
          <mxGeometry relative="1" as="geometry" />
        </mxCell>
        <mxCell id="Ma9vZrQTeCv6cbDS7a-y-112" value="" style="rhombus;" vertex="1" parent="1">
          <mxGeometry x="335" y="2350" width="30" height="30" as="geometry" />
        </mxCell>
        <mxCell id="Ma9vZrQTeCv6cbDS7a-y-114" value="[available]" style="text;html=1;strokeColor=none;fillColor=none;align=center;verticalAlign=middle;whiteSpace=wrap;rounded=0;" vertex="1" parent="1">
          <mxGeometry x="365" y="2330" width="60" height="30" as="geometry" />
        </mxCell>
        <mxCell id="Ma9vZrQTeCv6cbDS7a-y-120" style="edgeStyle=orthogonalEdgeStyle;rounded=0;orthogonalLoop=1;jettySize=auto;html=1;exitX=1;exitY=0.5;exitDx=0;exitDy=0;entryX=0;entryY=0.25;entryDx=0;entryDy=0;" edge="1" parent="1" source="Ma9vZrQTeCv6cbDS7a-y-115" target="Ma9vZrQTeCv6cbDS7a-y-119">
          <mxGeometry relative="1" as="geometry" />
        </mxCell>
        <mxCell id="Ma9vZrQTeCv6cbDS7a-y-115" value="" style="rhombus;" vertex="1" parent="1">
          <mxGeometry x="400" y="2390" width="30" height="30" as="geometry" />
        </mxCell>
        <mxCell id="Ma9vZrQTeCv6cbDS7a-y-124" style="edgeStyle=orthogonalEdgeStyle;rounded=0;orthogonalLoop=1;jettySize=auto;html=1;exitX=0.5;exitY=1;exitDx=0;exitDy=0;entryX=0;entryY=0.5;entryDx=0;entryDy=0;" edge="1" parent="1" source="Ma9vZrQTeCv6cbDS7a-y-117" target="Ma9vZrQTeCv6cbDS7a-y-123">
          <mxGeometry relative="1" as="geometry" />
        </mxCell>
        <mxCell id="Ma9vZrQTeCv6cbDS7a-y-117" value="" style="rhombus;" vertex="1" parent="1">
          <mxGeometry x="205" y="2410" width="30" height="30" as="geometry" />
        </mxCell>
        <mxCell id="Ma9vZrQTeCv6cbDS7a-y-118" value="[not &lt;br&gt;available]" style="text;html=1;strokeColor=none;fillColor=none;align=center;verticalAlign=middle;whiteSpace=wrap;rounded=0;" vertex="1" parent="1">
          <mxGeometry x="280" y="2385" width="60" height="30" as="geometry" />
        </mxCell>
        <mxCell id="Ma9vZrQTeCv6cbDS7a-y-132" style="edgeStyle=orthogonalEdgeStyle;rounded=0;orthogonalLoop=1;jettySize=auto;html=1;exitX=1;exitY=0.5;exitDx=0;exitDy=0;entryX=0;entryY=0.5;entryDx=0;entryDy=0;" edge="1" parent="1" source="Ma9vZrQTeCv6cbDS7a-y-119" target="Ma9vZrQTeCv6cbDS7a-y-131">
          <mxGeometry relative="1" as="geometry" />
        </mxCell>
        <mxCell id="Ma9vZrQTeCv6cbDS7a-y-119" value="Check Out Book" style="html=1;align=center;verticalAlign=top;rounded=1;absoluteArcSize=1;arcSize=10;dashed=0;whiteSpace=wrap;" vertex="1" parent="1">
          <mxGeometry x="490" y="2390" width="140" height="40" as="geometry" />
        </mxCell>
        <mxCell id="Ma9vZrQTeCv6cbDS7a-y-123" value="Put Hold on Book" style="html=1;align=center;verticalAlign=top;rounded=1;absoluteArcSize=1;arcSize=10;dashed=0;whiteSpace=wrap;" vertex="1" parent="1">
          <mxGeometry x="240" y="2460" width="140" height="40" as="geometry" />
        </mxCell>
        <mxCell id="Ma9vZrQTeCv6cbDS7a-y-138" value="" style="edgeStyle=orthogonalEdgeStyle;rounded=0;orthogonalLoop=1;jettySize=auto;html=1;" edge="1" parent="1" source="Ma9vZrQTeCv6cbDS7a-y-131" target="Ma9vZrQTeCv6cbDS7a-y-137">
          <mxGeometry relative="1" as="geometry" />
        </mxCell>
        <mxCell id="Ma9vZrQTeCv6cbDS7a-y-140" value="" style="edgeStyle=orthogonalEdgeStyle;rounded=0;orthogonalLoop=1;jettySize=auto;html=1;" edge="1" parent="1" source="Ma9vZrQTeCv6cbDS7a-y-131" target="Ma9vZrQTeCv6cbDS7a-y-139">
          <mxGeometry relative="1" as="geometry">
            <Array as="points">
              <mxPoint x="800" y="2410" />
              <mxPoint x="800" y="2700" />
            </Array>
          </mxGeometry>
        </mxCell>
        <mxCell id="Ma9vZrQTeCv6cbDS7a-y-143" value="" style="edgeStyle=orthogonalEdgeStyle;rounded=0;orthogonalLoop=1;jettySize=auto;html=1;" edge="1" parent="1" source="Ma9vZrQTeCv6cbDS7a-y-131" target="Ma9vZrQTeCv6cbDS7a-y-142">
          <mxGeometry relative="1" as="geometry" />
        </mxCell>
        <mxCell id="Ma9vZrQTeCv6cbDS7a-y-131" value="" style="rhombus;" vertex="1" parent="1">
          <mxGeometry x="690" y="2395" width="30" height="30" as="geometry" />
        </mxCell>
        <mxCell id="Ma9vZrQTeCv6cbDS7a-y-134" style="edgeStyle=orthogonalEdgeStyle;rounded=0;orthogonalLoop=1;jettySize=auto;html=1;exitX=1;exitY=0.5;exitDx=0;exitDy=0;entryX=0.5;entryY=1;entryDx=0;entryDy=0;" edge="1" parent="1" source="Ma9vZrQTeCv6cbDS7a-y-123" target="Ma9vZrQTeCv6cbDS7a-y-119">
          <mxGeometry relative="1" as="geometry" />
        </mxCell>
        <mxCell id="Ma9vZrQTeCv6cbDS7a-y-135" value="[when book is available]" style="text;html=1;strokeColor=none;fillColor=none;align=center;verticalAlign=middle;whiteSpace=wrap;rounded=0;" vertex="1" parent="1">
          <mxGeometry x="420" y="2450" width="110" height="30" as="geometry" />
        </mxCell>
        <mxCell id="Ma9vZrQTeCv6cbDS7a-y-136" value="[search]" style="text;html=1;strokeColor=none;fillColor=none;align=center;verticalAlign=middle;whiteSpace=wrap;rounded=0;" vertex="1" parent="1">
          <mxGeometry x="80" y="2340" width="60" height="30" as="geometry" />
        </mxCell>
        <mxCell id="Ma9vZrQTeCv6cbDS7a-y-137" value="View Member Books Borrowed" style="whiteSpace=wrap;html=1;" vertex="1" parent="1">
          <mxGeometry x="645" y="2280" width="120" height="60" as="geometry" />
        </mxCell>
        <mxCell id="Ma9vZrQTeCv6cbDS7a-y-139" value="View Member Books Returned" style="whiteSpace=wrap;html=1;" vertex="1" parent="1">
          <mxGeometry x="660" y="2670" width="120" height="60" as="geometry" />
        </mxCell>
        <mxCell id="Ma9vZrQTeCv6cbDS7a-y-145" value="" style="edgeStyle=orthogonalEdgeStyle;rounded=0;orthogonalLoop=1;jettySize=auto;html=1;entryX=1;entryY=0.5;entryDx=0;entryDy=0;" edge="1" parent="1" source="Ma9vZrQTeCv6cbDS7a-y-142" target="Ma9vZrQTeCv6cbDS7a-y-146">
          <mxGeometry relative="1" as="geometry">
            <mxPoint x="565" y="2550" as="targetPoint" />
          </mxGeometry>
        </mxCell>
        <mxCell id="Ma9vZrQTeCv6cbDS7a-y-142" value="Due Date Calculated" style="whiteSpace=wrap;html=1;" vertex="1" parent="1">
          <mxGeometry x="645" y="2520" width="120" height="60" as="geometry" />
        </mxCell>
        <mxCell id="Ma9vZrQTeCv6cbDS7a-y-148" value="" style="edgeStyle=orthogonalEdgeStyle;rounded=0;orthogonalLoop=1;jettySize=auto;html=1;" edge="1" parent="1" source="Ma9vZrQTeCv6cbDS7a-y-146" target="Ma9vZrQTeCv6cbDS7a-y-147">
          <mxGeometry relative="1" as="geometry" />
        </mxCell>
        <mxCell id="Ma9vZrQTeCv6cbDS7a-y-146" value="" style="rhombus;" vertex="1" parent="1">
          <mxGeometry x="545" y="2605" width="30" height="30" as="geometry" />
        </mxCell>
        <mxCell id="Ma9vZrQTeCv6cbDS7a-y-156" style="edgeStyle=orthogonalEdgeStyle;rounded=0;orthogonalLoop=1;jettySize=auto;html=1;exitX=0;exitY=0.5;exitDx=0;exitDy=0;" edge="1" parent="1" source="Ma9vZrQTeCv6cbDS7a-y-147" target="Ma9vZrQTeCv6cbDS7a-y-155">
          <mxGeometry relative="1" as="geometry" />
        </mxCell>
        <mxCell id="Ma9vZrQTeCv6cbDS7a-y-147" value="Return Book" style="whiteSpace=wrap;html=1;" vertex="1" parent="1">
          <mxGeometry x="340" y="2590" width="120" height="60" as="geometry" />
        </mxCell>
        <mxCell id="Ma9vZrQTeCv6cbDS7a-y-149" value="" style="ellipse;html=1;shape=endState;fillColor=strokeColor;" vertex="1" parent="1">
          <mxGeometry x="95" y="2605" width="30" height="30" as="geometry" />
        </mxCell>
        <mxCell id="Ma9vZrQTeCv6cbDS7a-y-153" style="edgeStyle=orthogonalEdgeStyle;rounded=0;orthogonalLoop=1;jettySize=auto;html=1;exitX=1;exitY=1;exitDx=0;exitDy=0;entryX=0;entryY=0;entryDx=0;entryDy=0;" edge="1" parent="1" source="Ma9vZrQTeCv6cbDS7a-y-152" target="Ma9vZrQTeCv6cbDS7a-y-107">
          <mxGeometry relative="1" as="geometry" />
        </mxCell>
        <mxCell id="Ma9vZrQTeCv6cbDS7a-y-152" value="" style="ellipse;fillColor=strokeColor;html=1;" vertex="1" parent="1">
          <mxGeometry x="30" y="2300" width="30" height="30" as="geometry" />
        </mxCell>
        <mxCell id="Ma9vZrQTeCv6cbDS7a-y-157" style="edgeStyle=orthogonalEdgeStyle;rounded=0;orthogonalLoop=1;jettySize=auto;html=1;exitX=0;exitY=0.5;exitDx=0;exitDy=0;entryX=1;entryY=0.5;entryDx=0;entryDy=0;" edge="1" parent="1" source="Ma9vZrQTeCv6cbDS7a-y-155" target="Ma9vZrQTeCv6cbDS7a-y-149">
          <mxGeometry relative="1" as="geometry" />
        </mxCell>
        <mxCell id="Ma9vZrQTeCv6cbDS7a-y-158" style="edgeStyle=orthogonalEdgeStyle;rounded=0;orthogonalLoop=1;jettySize=auto;html=1;exitX=1;exitY=1;exitDx=0;exitDy=0;entryX=0;entryY=0.5;entryDx=0;entryDy=0;" edge="1" parent="1" source="Ma9vZrQTeCv6cbDS7a-y-155" target="Ma9vZrQTeCv6cbDS7a-y-139">
          <mxGeometry relative="1" as="geometry">
            <Array as="points">
              <mxPoint x="235" y="2628" />
              <mxPoint x="235" y="2700" />
            </Array>
          </mxGeometry>
        </mxCell>
        <mxCell id="Ma9vZrQTeCv6cbDS7a-y-155" value="" style="rhombus;" vertex="1" parent="1">
          <mxGeometry x="220" y="2605" width="30" height="30" as="geometry" />
        </mxCell>
        <mxCell id="Ma9vZrQTeCv6cbDS7a-y-159" value="Q4: Sequence Diagrams" style="shape=umlFrame;whiteSpace=wrap;html=1;pointerEvents=0;width=190;height=50;" vertex="1" parent="1">
          <mxGeometry x="5" y="3330" width="840" height="670" as="geometry" />
        </mxCell>
        <mxCell id="Ma9vZrQTeCv6cbDS7a-y-160" value="" style="html=1;points=[];perimeter=orthogonalPerimeter;fillColor=strokeColor;" vertex="1" parent="1">
          <mxGeometry x="102.5" y="3500" width="5" height="460" as="geometry" />
        </mxCell>
        <mxCell id="Ma9vZrQTeCv6cbDS7a-y-161" value=":Member" style="shape=umlActor;verticalLabelPosition=top;verticalAlign=bottom;html=1;labelPosition=center;align=center;" vertex="1" parent="1">
          <mxGeometry x="90" y="3410" width="30" height="60" as="geometry" />
        </mxCell>
        <mxCell id="Ma9vZrQTeCv6cbDS7a-y-164" value="" style="endArrow=block;endFill=1;endSize=12;html=1;rounded=0;" edge="1" parent="1" target="Ma9vZrQTeCv6cbDS7a-y-165">
          <mxGeometry width="160" relative="1" as="geometry">
            <mxPoint x="107.5" y="3520" as="sourcePoint" />
            <mxPoint x="265" y="3520" as="targetPoint" />
          </mxGeometry>
        </mxCell>
        <mxCell id="Ma9vZrQTeCv6cbDS7a-y-169" value="Book title search" style="text;html=1;strokeColor=none;fillColor=none;align=center;verticalAlign=middle;whiteSpace=wrap;rounded=0;" vertex="1" parent="1">
          <mxGeometry x="107.5" y="3490" width="267.5" height="30" as="geometry" />
        </mxCell>
        <mxCell id="Ma9vZrQTeCv6cbDS7a-y-170" value="" style="html=1;points=[];perimeter=orthogonalPerimeter;fillColor=strokeColor;" vertex="1" parent="1">
          <mxGeometry x="367.5" y="3500" width="5" height="50" as="geometry" />
        </mxCell>
        <mxCell id="Ma9vZrQTeCv6cbDS7a-y-171" value="" style="endArrow=open;startArrow=none;endFill=0;startFill=0;endSize=8;html=1;verticalAlign=bottom;dashed=1;labelBackgroundColor=none;rounded=0;entryX=0.7;entryY=0.2;entryDx=0;entryDy=0;entryPerimeter=0;" edge="1" parent="1">
          <mxGeometry width="160" relative="1" as="geometry">
            <mxPoint x="369.5" y="3542" as="sourcePoint" />
            <mxPoint x="106" y="3542" as="targetPoint" />
          </mxGeometry>
        </mxCell>
        <mxCell id="Ma9vZrQTeCv6cbDS7a-y-172" value="Search results" style="text;html=1;align=center;verticalAlign=middle;resizable=0;points=[];autosize=1;strokeColor=none;fillColor=none;" vertex="1" parent="1">
          <mxGeometry x="195" y="3518" width="100" height="30" as="geometry" />
        </mxCell>
        <mxCell id="Ma9vZrQTeCv6cbDS7a-y-173" value="opt" style="shape=umlFrame;whiteSpace=wrap;html=1;pointerEvents=0;" vertex="1" parent="1">
          <mxGeometry x="80" y="3590" width="300" height="70" as="geometry" />
        </mxCell>
        <mxCell id="Ma9vZrQTeCv6cbDS7a-y-175" value="view book description" style="html=1;verticalAlign=bottom;endArrow=block;curved=0;rounded=0;" edge="1" parent="1">
          <mxGeometry width="80" relative="1" as="geometry">
            <mxPoint x="105" y="3640" as="sourcePoint" />
            <mxPoint x="369.5" y="3640" as="targetPoint" />
            <Array as="points">
              <mxPoint x="145" y="3640" />
            </Array>
          </mxGeometry>
        </mxCell>
        <mxCell id="Ma9vZrQTeCv6cbDS7a-y-176" value="" style="html=1;points=[];perimeter=orthogonalPerimeter;fillColor=strokeColor;" vertex="1" parent="1">
          <mxGeometry x="367.5" y="3630" width="5" height="20" as="geometry" />
        </mxCell>
        <mxCell id="Ma9vZrQTeCv6cbDS7a-y-177" value="opt" style="shape=umlFrame;whiteSpace=wrap;html=1;pointerEvents=0;" vertex="1" parent="1">
          <mxGeometry x="80" y="3670" width="300" height="70" as="geometry" />
        </mxCell>
        <mxCell id="Ma9vZrQTeCv6cbDS7a-y-178" value="check availability" style="html=1;verticalAlign=bottom;endArrow=block;curved=0;rounded=0;" edge="1" parent="1" source="Ma9vZrQTeCv6cbDS7a-y-179">
          <mxGeometry x="0.3743" width="80" relative="1" as="geometry">
            <mxPoint x="105" y="3720" as="sourcePoint" />
            <mxPoint x="375" y="3720" as="targetPoint" />
            <Array as="points">
              <mxPoint x="147.5" y="3720" />
            </Array>
            <mxPoint x="1" as="offset" />
          </mxGeometry>
        </mxCell>
        <mxCell id="Ma9vZrQTeCv6cbDS7a-y-180" value="" style="html=1;verticalAlign=bottom;endArrow=block;curved=0;rounded=0;" edge="1" parent="1" target="Ma9vZrQTeCv6cbDS7a-y-179">
          <mxGeometry width="80" relative="1" as="geometry">
            <mxPoint x="105" y="3720" as="sourcePoint" />
            <mxPoint x="375" y="3720" as="targetPoint" />
            <Array as="points" />
          </mxGeometry>
        </mxCell>
        <mxCell id="Ma9vZrQTeCv6cbDS7a-y-179" value="" style="html=1;points=[];perimeter=orthogonalPerimeter;fillColor=strokeColor;" vertex="1" parent="1">
          <mxGeometry x="367.5" y="3710" width="5" height="20" as="geometry" />
        </mxCell>
        <mxCell id="Ma9vZrQTeCv6cbDS7a-y-185" value="opt" style="shape=umlFrame;whiteSpace=wrap;html=1;pointerEvents=0;" vertex="1" parent="1">
          <mxGeometry x="80" y="3750" width="300" height="80" as="geometry" />
        </mxCell>
        <mxCell id="Ma9vZrQTeCv6cbDS7a-y-186" value="check availability" style="html=1;verticalAlign=bottom;endArrow=block;curved=0;rounded=0;" edge="1" parent="1" source="Ma9vZrQTeCv6cbDS7a-y-188">
          <mxGeometry x="0.3743" width="80" relative="1" as="geometry">
            <mxPoint x="105" y="3800" as="sourcePoint" />
            <mxPoint x="375" y="3800" as="targetPoint" />
            <Array as="points">
              <mxPoint x="147.5" y="3800" />
            </Array>
            <mxPoint x="1" as="offset" />
          </mxGeometry>
        </mxCell>
        <mxCell id="Ma9vZrQTeCv6cbDS7a-y-187" value="" style="html=1;verticalAlign=bottom;endArrow=block;curved=0;rounded=0;" edge="1" parent="1" target="Ma9vZrQTeCv6cbDS7a-y-188">
          <mxGeometry width="80" relative="1" as="geometry">
            <mxPoint x="105" y="3800" as="sourcePoint" />
            <mxPoint x="375" y="3800" as="targetPoint" />
            <Array as="points" />
          </mxGeometry>
        </mxCell>
        <mxCell id="Ma9vZrQTeCv6cbDS7a-y-188" value="" style="html=1;points=[];perimeter=orthogonalPerimeter;fillColor=strokeColor;" vertex="1" parent="1">
          <mxGeometry x="367.5" y="3790" width="5" height="20" as="geometry" />
        </mxCell>
        <mxCell id="Ma9vZrQTeCv6cbDS7a-y-195" value="" style="endArrow=open;endSize=12;dashed=1;html=1;rounded=0;" edge="1" parent="1">
          <mxGeometry width="160" relative="1" as="geometry">
            <mxPoint x="369.5" y="3812.1000000000004" as="sourcePoint" />
            <mxPoint x="105" y="3812" as="targetPoint" />
          </mxGeometry>
        </mxCell>
        <mxCell id="Ma9vZrQTeCv6cbDS7a-y-194" value="" style="shape=partialRectangle;whiteSpace=wrap;html=1;bottom=1;right=1;left=1;top=0;fillColor=none;routingCenterX=-0.5;" vertex="1" parent="1">
          <mxGeometry x="45" y="3849" width="120" height="20" as="geometry" />
        </mxCell>
        <mxCell id="Ma9vZrQTeCv6cbDS7a-y-196" value="" style="shape=partialRectangle;whiteSpace=wrap;html=1;bottom=1;right=1;left=1;top=0;fillColor=none;routingCenterX=-0.5;flipV=1;" vertex="1" parent="1">
          <mxGeometry x="45" y="3560" width="120" height="20" as="geometry" />
        </mxCell>
        <mxCell id="Ma9vZrQTeCv6cbDS7a-y-197" value="opt" style="shape=umlFrame;whiteSpace=wrap;html=1;pointerEvents=0;" vertex="1" parent="1">
          <mxGeometry x="85" y="3880" width="300" height="90" as="geometry" />
        </mxCell>
        <mxCell id="Ma9vZrQTeCv6cbDS7a-y-198" value="ref" style="shape=umlFrame;whiteSpace=wrap;html=1;pointerEvents=0;fillColor=#FFFFFF;" vertex="1" parent="1">
          <mxGeometry x="105" y="3920" width="270" height="40" as="geometry" />
        </mxCell>
        <mxCell id="Ma9vZrQTeCv6cbDS7a-y-199" value="Check Out Book" style="text;html=1;align=center;verticalAlign=middle;resizable=0;points=[];autosize=1;strokeColor=none;fillColor=none;" vertex="1" parent="1">
          <mxGeometry x="215" y="3925" width="110" height="30" as="geometry" />
        </mxCell>
        <mxCell id="Ma9vZrQTeCv6cbDS7a-y-200" value="" style="endArrow=none;dashed=1;html=1;rounded=0;entryX=0.5;entryY=0.717;entryDx=0;entryDy=0;entryPerimeter=0;exitX=0.119;exitY=1;exitDx=0;exitDy=0;exitPerimeter=0;" edge="1" parent="1" source="Ma9vZrQTeCv6cbDS7a-y-159" target="Ma9vZrQTeCv6cbDS7a-y-161">
          <mxGeometry width="50" height="50" relative="1" as="geometry">
            <mxPoint x="52.5" y="3540" as="sourcePoint" />
            <mxPoint x="102.5" y="3490" as="targetPoint" />
          </mxGeometry>
        </mxCell>
        <mxCell id="Ma9vZrQTeCv6cbDS7a-y-201" value=":Library" style="shape=umlLifeline;perimeter=lifelinePerimeter;whiteSpace=wrap;html=1;container=1;dropTarget=0;collapsible=0;recursiveResize=0;outlineConnect=0;portConstraint=eastwest;newEdgeStyle={&quot;curved&quot;:0,&quot;rounded&quot;:0};" vertex="1" parent="1">
          <mxGeometry x="720" y="3410" width="100" height="570" as="geometry" />
        </mxCell>
        <mxCell id="Ma9vZrQTeCv6cbDS7a-y-202" value="" style="html=1;points=[];perimeter=orthogonalPerimeter;fillColor=strokeColor;" vertex="1" parent="1">
          <mxGeometry x="502.5" y="3500" width="5" height="460" as="geometry" />
        </mxCell>
        <mxCell id="Ma9vZrQTeCv6cbDS7a-y-203" value=":Member" style="shape=umlActor;verticalLabelPosition=top;verticalAlign=bottom;html=1;labelPosition=center;align=center;" vertex="1" parent="1">
          <mxGeometry x="490" y="3410" width="30" height="60" as="geometry" />
        </mxCell>
        <mxCell id="Ma9vZrQTeCv6cbDS7a-y-204" value="" style="endArrow=block;endFill=1;endSize=12;html=1;rounded=0;" edge="1" parent="1" target="Ma9vZrQTeCv6cbDS7a-y-201">
          <mxGeometry width="160" relative="1" as="geometry">
            <mxPoint x="507.5" y="3520" as="sourcePoint" />
            <mxPoint x="665" y="3520" as="targetPoint" />
          </mxGeometry>
        </mxCell>
        <mxCell id="Ma9vZrQTeCv6cbDS7a-y-205" value="Book Returned To Library" style="text;html=1;strokeColor=none;fillColor=none;align=center;verticalAlign=middle;whiteSpace=wrap;rounded=0;" vertex="1" parent="1">
          <mxGeometry x="507.5" y="3490" width="267.5" height="30" as="geometry" />
        </mxCell>
        <mxCell id="Ma9vZrQTeCv6cbDS7a-y-206" value="" style="html=1;points=[];perimeter=orthogonalPerimeter;fillColor=strokeColor;" vertex="1" parent="1">
          <mxGeometry x="767.5" y="3500" width="5" height="50" as="geometry" />
        </mxCell>
        <mxCell id="Ma9vZrQTeCv6cbDS7a-y-207" value="" style="endArrow=open;startArrow=none;endFill=0;startFill=0;endSize=8;html=1;verticalAlign=bottom;dashed=1;labelBackgroundColor=none;rounded=0;entryX=0.7;entryY=0.2;entryDx=0;entryDy=0;entryPerimeter=0;" edge="1" parent="1">
          <mxGeometry width="160" relative="1" as="geometry">
            <mxPoint x="769.5" y="3542" as="sourcePoint" />
            <mxPoint x="506" y="3542" as="targetPoint" />
          </mxGeometry>
        </mxCell>
        <mxCell id="Ma9vZrQTeCv6cbDS7a-y-208" value="Library Confirms receipt" style="text;html=1;align=center;verticalAlign=middle;resizable=0;points=[];autosize=1;strokeColor=none;fillColor=none;" vertex="1" parent="1">
          <mxGeometry x="570" y="3518" width="150" height="30" as="geometry" />
        </mxCell>
        <mxCell id="Ma9vZrQTeCv6cbDS7a-y-209" value="opt" style="shape=umlFrame;whiteSpace=wrap;html=1;pointerEvents=0;" vertex="1" parent="1">
          <mxGeometry x="480" y="3590" width="300" height="70" as="geometry" />
        </mxCell>
        <mxCell id="Ma9vZrQTeCv6cbDS7a-y-210" value="Search for new book title" style="html=1;verticalAlign=bottom;endArrow=block;curved=0;rounded=0;" edge="1" parent="1">
          <mxGeometry width="80" relative="1" as="geometry">
            <mxPoint x="505" y="3640" as="sourcePoint" />
            <mxPoint x="769.5" y="3640" as="targetPoint" />
            <Array as="points">
              <mxPoint x="545" y="3640" />
            </Array>
          </mxGeometry>
        </mxCell>
        <mxCell id="Ma9vZrQTeCv6cbDS7a-y-211" value="" style="html=1;points=[];perimeter=orthogonalPerimeter;fillColor=strokeColor;" vertex="1" parent="1">
          <mxGeometry x="767.5" y="3630" width="5" height="20" as="geometry" />
        </mxCell>
        <mxCell id="Ma9vZrQTeCv6cbDS7a-y-212" value="opt" style="shape=umlFrame;whiteSpace=wrap;html=1;pointerEvents=0;" vertex="1" parent="1">
          <mxGeometry x="480" y="3670" width="300" height="70" as="geometry" />
        </mxCell>
        <mxCell id="Ma9vZrQTeCv6cbDS7a-y-213" value="View Member Returned Books" style="html=1;verticalAlign=bottom;endArrow=block;curved=0;rounded=0;" edge="1" parent="1" source="Ma9vZrQTeCv6cbDS7a-y-215">
          <mxGeometry x="0.419" y="10" width="80" relative="1" as="geometry">
            <mxPoint x="505" y="3720" as="sourcePoint" />
            <mxPoint x="775" y="3720" as="targetPoint" />
            <Array as="points">
              <mxPoint x="547.5" y="3720" />
            </Array>
            <mxPoint as="offset" />
          </mxGeometry>
        </mxCell>
        <mxCell id="Ma9vZrQTeCv6cbDS7a-y-214" value="" style="html=1;verticalAlign=bottom;endArrow=block;curved=0;rounded=0;" edge="1" parent="1" target="Ma9vZrQTeCv6cbDS7a-y-215">
          <mxGeometry width="80" relative="1" as="geometry">
            <mxPoint x="505" y="3720" as="sourcePoint" />
            <mxPoint x="775" y="3720" as="targetPoint" />
            <Array as="points" />
          </mxGeometry>
        </mxCell>
        <mxCell id="Ma9vZrQTeCv6cbDS7a-y-215" value="" style="html=1;points=[];perimeter=orthogonalPerimeter;fillColor=strokeColor;" vertex="1" parent="1">
          <mxGeometry x="767.5" y="3710" width="5" height="20" as="geometry" />
        </mxCell>
        <mxCell id="Ma9vZrQTeCv6cbDS7a-y-216" value="opt" style="shape=umlFrame;whiteSpace=wrap;html=1;pointerEvents=0;" vertex="1" parent="1">
          <mxGeometry x="480" y="3750" width="300" height="80" as="geometry" />
        </mxCell>
        <mxCell id="Ma9vZrQTeCv6cbDS7a-y-217" value="View Member Books Borrowed" style="html=1;verticalAlign=bottom;endArrow=block;curved=0;rounded=0;" edge="1" parent="1" source="Ma9vZrQTeCv6cbDS7a-y-219">
          <mxGeometry x="0.3743" width="80" relative="1" as="geometry">
            <mxPoint x="505" y="3800" as="sourcePoint" />
            <mxPoint x="775" y="3800" as="targetPoint" />
            <Array as="points">
              <mxPoint x="547.5" y="3800" />
            </Array>
            <mxPoint x="1" as="offset" />
          </mxGeometry>
        </mxCell>
        <mxCell id="Ma9vZrQTeCv6cbDS7a-y-218" value="" style="html=1;verticalAlign=bottom;endArrow=block;curved=0;rounded=0;" edge="1" parent="1" target="Ma9vZrQTeCv6cbDS7a-y-219">
          <mxGeometry width="80" relative="1" as="geometry">
            <mxPoint x="505" y="3800" as="sourcePoint" />
            <mxPoint x="775" y="3800" as="targetPoint" />
            <Array as="points" />
          </mxGeometry>
        </mxCell>
        <mxCell id="Ma9vZrQTeCv6cbDS7a-y-219" value="" style="html=1;points=[];perimeter=orthogonalPerimeter;fillColor=strokeColor;" vertex="1" parent="1">
          <mxGeometry x="767.5" y="3790" width="5" height="30" as="geometry" />
        </mxCell>
        <mxCell id="Ma9vZrQTeCv6cbDS7a-y-222" value="" style="shape=partialRectangle;whiteSpace=wrap;html=1;bottom=1;right=1;left=1;top=0;fillColor=none;routingCenterX=-0.5;" vertex="1" parent="1">
          <mxGeometry x="445" y="3849" width="120" height="20" as="geometry" />
        </mxCell>
        <mxCell id="Ma9vZrQTeCv6cbDS7a-y-223" value="" style="shape=partialRectangle;whiteSpace=wrap;html=1;bottom=1;right=1;left=1;top=0;fillColor=none;routingCenterX=-0.5;flipV=1;" vertex="1" parent="1">
          <mxGeometry x="445" y="3560" width="120" height="20" as="geometry" />
        </mxCell>
        <mxCell id="Ma9vZrQTeCv6cbDS7a-y-224" value="opt" style="shape=umlFrame;whiteSpace=wrap;html=1;pointerEvents=0;" vertex="1" parent="1">
          <mxGeometry x="485" y="3880" width="300" height="90" as="geometry" />
        </mxCell>
        <mxCell id="Ma9vZrQTeCv6cbDS7a-y-225" value="ref" style="shape=umlFrame;whiteSpace=wrap;html=1;pointerEvents=0;fillColor=#FFFFFF;" vertex="1" parent="1">
          <mxGeometry x="505" y="3920" width="270" height="40" as="geometry" />
        </mxCell>
        <mxCell id="Ma9vZrQTeCv6cbDS7a-y-226" value="Book Returned&amp;nbsp;" style="text;html=1;align=center;verticalAlign=middle;resizable=0;points=[];autosize=1;strokeColor=none;fillColor=none;" vertex="1" parent="1">
          <mxGeometry x="615" y="3925" width="110" height="30" as="geometry" />
        </mxCell>
        <mxCell id="Ma9vZrQTeCv6cbDS7a-y-230" value="Member Books Borrowed" style="endArrow=open;endSize=12;dashed=1;html=1;rounded=0;" edge="1" parent="1" source="Ma9vZrQTeCv6cbDS7a-y-201">
          <mxGeometry width="160" relative="1" as="geometry">
            <mxPoint x="665" y="3820" as="sourcePoint" />
            <mxPoint x="505" y="3820" as="targetPoint" />
            <Array as="points">
              <mxPoint x="580" y="3820" />
            </Array>
          </mxGeometry>
        </mxCell>
        <mxCell id="Ma9vZrQTeCv6cbDS7a-y-231" value="Member Books Returned" style="endArrow=open;endSize=12;dashed=1;html=1;rounded=0;" edge="1" parent="1">
          <mxGeometry width="160" relative="1" as="geometry">
            <mxPoint x="770" y="3730" as="sourcePoint" />
            <mxPoint x="505" y="3730" as="targetPoint" />
            <Array as="points">
              <mxPoint x="580" y="3730" />
            </Array>
          </mxGeometry>
        </mxCell>
      </root>
    </mxGraphModel>
  </diagram>
</mxfile>
